<svg xmlns="http://www.w3.org/2000/svg" xmlns:xlink="http://www.w3.org/1999/xlink" viewBox="0 0 514.27 528.25"><defs><clipPath id="clip-path" transform="translate(1.82 14.25)"><circle cx="251.5" cy="251.5" r="251.5" style="fill:none"></circle></clipPath></defs><g id="Layer_2" data-name="Layer 2"><g id="Layer_1-2" data-name="Layer 1"><g style="clip-path:url(#clip-path)"><path d="M246,481.35H486.85c6.94,0,6.95,0,6.95-7V-7.46c0-6.78,0-6.79-6.64-6.79H4.87c-6.66,0-6.67,0-6.67,6.74q0,240.9,0,481.79c0,7.89-1,7.06,7.35,7.06Q125.77,481.37,246,481.35Z" transform="translate(1.82 14.25)" style="fill:#2b1300"></path><path d="M255.28,514q-124.72,0-249.44,0c-8.62,0-7.62.89-7.62-7.52q0-256.75,0-513.52c0-7.17,0-7.18,6.92-7.18H505.55c6.89,0,6.9,0,6.9,7.24V506.51c0,7.47,0,7.48-7.21,7.48ZM323.89,178.7c-7.9-2.57-15.76-5.31-23.73-7.64-3.26-.95-4.54-2.38-4.41-5.89.25-6.94.71-13.94-2.7-20.52a21.54,21.54,0,0,1-1.76-14.09,96.39,96.39,0,0,0,1.63-22.37,21,21,0,0,1,2.17-10.1,141.31,141.31,0,0,0,8.78-24.9c2.17-8.92,4-17.88,2.71-27.15a12,12,0,0,0-6.39-9.57c-7.25-3.83-14.67-2.53-20.25,3.43-.73.78-1.22,2.06-3,1.76a7,7,0,0,1-.32-2.23c.52-2.94,1.26-5.83,1.78-8.77,1.33-7.37-5.48-15.39-11.31-13.38-5.53,1.91-9.36,16.46-5.5,20.89,3.66,4.21,2.94,6.89-2.56,8.51a11.6,11.6,0,0,0-6.4,4.44c-2.36,3.22-5,6.29-7.12,9.64-5.69,8.81-14.16,10.31-23.63,9.35-3.5-.36-4.87-2.55-4.36-5.94.17-1.14.71-2.23.86-3.37.13-.89.52-2.16-.89-2.41-1.21-.22-1.83.73-2,1.78-.34,2.9-2,4.24-4.6,5.56s-3.88,4.36-1.27,7.15a7.25,7.25,0,0,1,1.73,6.91q-8.32,42.6-16.57,85.23c-.49,2.55-1.57,3.54-4.07,4.06a188.55,188.55,0,0,0-71,30.74C69.6,235.31,37.4,280.73,41,345.48c.2,3.61.91,4.89,4.73,4.8,10.82-.27,21.66,0,32.48-.17,3.54-.07,4.5,1.08,4.46,4.53-.18,13.32-.12,26.65,0,40a22.41,22.41,0,0,1-1.47,8.27c-5.28,13.82-10.42,27.7-15.77,41.5-1.13,2.91-.62,3.74,2.51,3.63,5.5-.19,11-.2,16.49,0,2.63.1,3.83-1,4.8-3.25,5.13-12.1,10.38-24.14,15.6-36.2a17.57,17.57,0,0,0,1.69-7.2c0-23.16-.11-46.31,0-69.46,0-3.58-1.1-4.48-4.51-4.42-11,.19-22,.09-33,0-1.59,0-3.34.5-4.7-1-2.6-2.8-2.16-9.77,1-14.08,3.2-4.46,9.11-7.17,12.38-4.59,6.23,4.9,10.48,2.32,14.78-2.38a34.17,34.17,0,0,1,2.68-2.24c2.1-1.86,4-1.65,6.24,0,4.23,3.11,4.75,2.8,6.26-2.1,1.34-4.35,1.64-9.18,5.33-12.54,1.76.75,2,2.39,2.63,3.66,4.62,8.62,9.58,9.29,16,1.69,6.73-8,11.23-16.52,10.39-28-1.23-17-3-14.57,10.71-22.08,5.89-3.22,5.35-6.71-.48-10.13-5.38-3.15-10.35-7.34-16.68-1.94a2,2,0,0,1-2.75-.38c-.57-.86-.06-1.82.62-2.7,2-2.48,3.58-5.23,5.68-7.57,4.05-4.51,8.63-8,15.26-5.49,2.54,1,3.34-.17,3.17-2.59a17.83,17.83,0,0,1,0-4c.62-4.08-.59-6-5.05-4.91-1.63.4-3.47.39-4.16-1.68a4.62,4.62,0,0,1,1-5.1,18.64,18.64,0,0,1,4.17-2.67c3.12-1.59,6.26-3.18,8.74-5.7a8.83,8.83,0,0,1,7.7-2.69,23.54,23.54,0,0,0,18.95-5.84c2.92-2.54,6.15-2.87,9.76-1.51a13,13,0,0,0,8.77.56c24.87-7.93,48.34-2.24,71.17,7.89,7.81,3.46,7.56,3.88,2.53,10.62-1.51,2-4.33,4.35-2.24,7,3.55,4.5,5.65,11.41,13.83,9.66,3.06-.66,4.64,1.31,3.49,4.14-3.07,7.59-3.76,15.44-3.42,23.5.13,3.28-1.77,4.64-4.84,3.74a64.08,64.08,0,0,1-9.34-3.44c-5.54-2.62-5.84-4-1.92-8.6,1.93-2.27,2.39-3.63-.84-5.12q-12.24-5.64-24.51-11.17c-6.07-2.73-10.57-.82-15,2.93-1,.83-2.43,1.75-2,3.18.44,1.65,2.22,1.15,3.45,1.18a43.32,43.32,0,0,1,15.62,2.86c5.72,2.33,8.29,6.33,8.2,12.39-.08,5.14-1.69,6.71-6.78,5.8-6.54-1.18-13.07-2.5-19.51-4.17-6.14-1.6-11.45-1.78-16.06,3.78-2.53,3.05-6.61,4.37-10.48,5.52-3.18.95-6.43,1.74-9.53,2.93-6.53,2.5-11.48,13.31-8.14,19.25a89.74,89.74,0,0,0,15.92,21c1.39,1.33,3.26,2.52,4.9,1.1,5.25-4.52,9.81-2.17,14.35,1,4.06,2.87,7.59,2,10.5-1.6,2.5-3.09,4.75-6.41,7-9.72,3.52-5.25,6.66-10.78,10.44-15.83,6.27-8.38,9.17-8.78,18.35-3.9,2.44,1.29,4.64,3.46,7.72,3,8.32-1.13,8.32-1.17,9.81,6.92.36,2,.37,3.86,3,4.48,4.73,1.1,5.46,3.36,2.73,7.56-2.07,3.19-5.48,4.78-8.5,6.82-6,4.06-7.53,7.88-5.07,12.83,4,8,10.44,11.52,17,9.12,4.06-1.5,8.13-3,12.1-4.67a14.15,14.15,0,0,1,9.63-.71c8.58,2.21,17.48,2.18,26.25,2.82,6.33.47,7.93-1.39,8.09-7.84.12-4.33,2.23-6.47,6.26-6.92a49.15,49.15,0,0,1,7.48-.25c9.36.42,11.24,2.6,11.1,11.93-.19,12-.13,24-.35,36-.06,3.22.93,4.32,4.27,4.26,10.82-.2,21.66.22,32.47-.21,5-.19,6,1.49,5.91,6.15-.33,12.49-.16,25-.08,37.48a20.89,20.89,0,0,1-1.63,8.21c-5.46,13.4-10.72,26.88-16.15,40.28-1.48,3.63-1.39,5.57,3.39,5.24a109.47,109.47,0,0,1,14.49,0c3.25.2,4.66-1.14,5.81-4q7.5-18.75,15.4-37.35a21.39,21.39,0,0,0,1.69-8.7c-.06-21.33,0-42.65-.05-64a37.6,37.6,0,0,0-.48-7c-7.64-39.84-26.15-74.3-53.89-103.42-7.39-7.76-12.05-13.94-11.79-25.36.34-14.86-2.75-29.78-4.22-44.69-.7-7.1-1.73-14.25.47-21.32.45-1.44.76-2.65,2.59-3.22,11.36-3.51,16.3-10,16.63-21.68.21-7.17.06-14.4-1.46-21.39-1.14-5.19-.54-11.8-7.82-13.7-.4-.11-.56-1.07-.87-1.62-4.25-7.61-13.4-9.35-20-3.8-.51.43-1,.87-1.5,1.33-1,1-2.11,1.71-3.55,1s-1-2-1-3.07c0-2.17.24-4.33.22-6.49,0-5.49-2.24-8.23-6.87-8.72s-8.09,2.14-9.28,7.14a13.62,13.62,0,0,0,.91,8.79c1.94,4.43,1.51,8.26-2.11,11.77a11.75,11.75,0,0,0-3.74,9c.38,9.41-4.78,15.54-11.71,20.81-3.53,2.68-7.78,3.69-11.7,5.5-3.59,1.66-5.9,4.6-4.23,8.36s5.07,2,7.84.88c5.55-2.24,11-4.67,16.61-6.81,4.71-1.81,7.36-.18,8.07,4.82.87,6.15-.11,11.9-3.8,17.11a98.41,98.41,0,0,1-11,12.9c-4.81,4.78-6.73,10-4.58,16.7,1,3.14,1.23,6.52,1.81,9.8Zm-12.05,187c-1.59-2.06-1.22-3.58-1.23-5,0-9.66-.1-19.32,0-29,0-2.86-.52-4.29-3.8-4.12-4.82.25-9.66.16-14.49,0-2.51-.06-3.58.76-3.57,3.41q.14,19.23,0,38.46c0,2.65,1,3.47,3.56,3.38,4-.15,8,.22,12-.11,4.52-.37,5.67.63,4.28,5.4-6.24,21.55-12,43.25-18.16,64.82-1.26,4.41-.26,5.38,4.05,5.05a88,88,0,0,1,14,0c3.62.29,4.84-1.24,5.75-4.43,6-20.94,12.11-41.83,18.21-62.73,2.35-8.05,4.74-16.09,7.11-24.14l1.16.13V415c0,9.73,0,9.83-9.68,10.07-2.69.07-3.93.69-3.82,3.64q.27,8,0,16c-.1,2.77,1.08,3.31,3.54,3.29,10-.11,20-.14,30,0,3,.05,3.59-1.11,3.58-3.8q-.09-56.44,0-112.89c0-2.9-1-3.76-3.78-3.7-5.82.14-11.65,0-17.48.05-6.14.07-13.65-1.89-18.06.94-4.68,3-4.53,11.27-6.6,17.2C316.18,352.15,314.17,358.57,311.84,365.66Zm-41.33,22.79c0-18.65-.12-37.31.1-56,.05-4.08-1.27-5-5.06-4.91-10.16.24-20.33.27-30.48,0-3.71-.1-4.82,1.22-5.27,4.63-1.36,10.39-3.07,20.74-4.53,31.12-.62,4.38-3.61,10-1.05,12.82s8.51.49,13,.89c3,.28,4-1.06,4.37-3.9.83-6.27,2-12.49,3.12-18.71.24-1.33-.06-3.47,2-3.48,2.37,0,1.57,2.15,1.58,3.44,0,22.32,0,44.64.09,67,0,2.8-.84,3.79-3.69,3.71-6.32-.17-12.66,0-19-.06-7.24-.07-6.46,1-6.47-6.29,0-28.64-.07-57.29.06-85.94,0-3.74-.74-5.51-4.91-5.17a84,84,0,0,1-13,0c-3.82-.27-4.75,1.13-4.74,4.82q.19,55.45,0,110.93c0,3.79,1.07,4.73,4.77,4.7q32.24-.26,64.46,0c3.63,0,4.83-.76,4.78-4.62C270.39,425.1,270.51,406.77,270.51,388.45Zm-90.64-34c0-7.66-.07-15.33,0-23,0-2.66-.59-4-3.59-3.87-5,.2-10,.18-15,0-2.88-.1-3.7,1.05-3.68,3.81q.15,23,0,46c0,2.5.67,3.62,3.38,3.54,5.15-.17,10.32-.18,15.48,0,2.71.1,3.41-1,3.38-3.49C179.81,369.78,179.87,362.12,179.87,354.46Zm-36.38.08c0-7.81-.09-15.62,0-23.42.05-2.54-.67-3.58-3.34-3.5q-7.73.24-15.45,0c-2.66-.08-3.38,1-3.36,3.49q.14,23.17,0,46.35c0,2.53.68,3.56,3.36,3.47,5.15-.17,10.3-.18,15.45,0,2.69.1,3.38-.94,3.34-3.47C143.41,369.82,143.49,362.18,143.49,354.54Z" transform="translate(1.82 14.25)" style="fill:#42a7d8"></path><path d="M324.75,177.7c-.58-3.28-.8-6.66-1.81-9.8-2.15-6.69-.23-11.92,4.58-16.7a98.41,98.41,0,0,0,11-12.9c3.69-5.21,4.67-11,3.8-17.11-.71-5-3.36-6.63-8.07-4.82-5.58,2.14-11.06,4.57-16.61,6.81-2.77,1.12-6.2,2.83-7.84-.88s.64-6.7,4.23-8.36c3.92-1.81,8.17-2.82,11.7-5.5,6.93-5.27,12.09-11.4,11.71-20.81a11.75,11.75,0,0,1,3.74-9c3.62-3.51,4.05-7.34,2.11-11.77a13.62,13.62,0,0,1-.91-8.79c1.19-5,4.59-7.63,9.28-7.14s6.83,3.23,6.87,8.72c0,2.16-.2,4.32-.22,6.49,0,1.11-.32,2.43,1,3.07s2.54,0,3.55-1c.48-.46,1-.9,1.5-1.33,6.61-5.55,15.76-3.81,20,3.8.31.55.47,1.51.87,1.62,7.28,1.9,6.68,8.51,7.82,13.7,1.52,7,1.67,14.22,1.46,21.39-.33,11.71-5.27,18.17-16.63,21.68-1.83.57-2.14,1.78-2.59,3.22-2.2,7.07-1.17,14.22-.47,21.32,1.47,14.91,4.56,29.83,4.22,44.69-.26,11.42,4.4,17.6,11.79,25.36,27.74,29.12,46.25,63.58,53.89,103.42a37.6,37.6,0,0,1,.48,7c0,21.32,0,42.64.05,64a21.39,21.39,0,0,1-1.69,8.7q-7.86,18.6-15.4,37.35c-1.15,2.85-2.56,4.19-5.81,4a109.47,109.47,0,0,0-14.49,0c-4.78.33-4.87-1.61-3.39-5.24,5.43-13.4,10.69-26.88,16.15-40.28a20.89,20.89,0,0,0,1.63-8.21c-.08-12.49-.25-25,.08-37.48.12-4.66-.86-6.34-5.91-6.15-10.81.43-21.65,0-32.47.21-3.34.06-4.33-1-4.27-4.26.22-12,.16-24,.35-36,.14-9.33-1.74-11.51-11.1-11.93a49.15,49.15,0,0,0-7.48.25c-4,.45-6.14,2.59-6.26,6.92-.16,6.45-1.76,8.31-8.09,7.84-8.77-.64-17.67-.61-26.25-2.82a14.15,14.15,0,0,0-9.63.71c-4,1.69-8,3.17-12.1,4.67-6.53,2.4-13-1.08-17-9.12-2.46-4.95-.94-8.77,5.07-12.83,3-2,6.43-3.63,8.5-6.82,2.73-4.2,2-6.46-2.73-7.56-2.67-.62-2.68-2.52-3-4.48-1.49-8.09-1.49-8.05-9.81-6.92-3.08.43-5.28-1.74-7.72-3-9.18-4.88-12.08-4.48-18.35,3.9-3.78,5.05-6.92,10.58-10.44,15.83-2.22,3.31-4.47,6.63-7,9.72-2.91,3.59-6.44,4.47-10.5,1.6-4.54-3.21-9.1-5.56-14.35-1-1.64,1.42-3.51.23-4.9-1.1a89.74,89.74,0,0,1-15.92-21c-3.34-5.94,1.61-16.75,8.14-19.25,3.1-1.19,6.35-2,9.53-2.93,3.87-1.15,7.95-2.47,10.48-5.52,4.61-5.56,9.92-5.38,16.06-3.78,6.44,1.67,13,3,19.51,4.17,5.09.91,6.7-.66,6.78-5.8.09-6.06-2.48-10.06-8.2-12.39A43.32,43.32,0,0,0,237.72,225c-1.23,0-3,.47-3.45-1.18-.39-1.43,1-2.35,2-3.18,4.44-3.75,8.94-5.66,15-2.93q12.29,5.52,24.51,11.17c3.23,1.49,2.77,2.85.84,5.12-3.92,4.62-3.62,6,1.92,8.6a64.08,64.08,0,0,0,9.34,3.44c3.07.9,5-.46,4.84-3.74-.34-8.06.35-15.91,3.42-23.5,1.15-2.83-.43-4.8-3.49-4.14-8.18,1.75-10.28-5.16-13.83-9.66-2.09-2.65.73-5,2.24-7,5-6.74,5.28-7.16-2.53-10.62-22.83-10.13-46.3-15.82-71.17-7.89a13,13,0,0,1-8.77-.56c-3.61-1.36-6.84-1-9.76,1.51a23.54,23.54,0,0,1-18.95,5.84,8.83,8.83,0,0,0-7.7,2.69c-2.48,2.52-5.62,4.11-8.74,5.7a18.64,18.64,0,0,0-4.17,2.67,4.62,4.62,0,0,0-1,5.1c.69,2.07,2.53,2.08,4.16,1.68,4.46-1.1,5.67.83,5.05,4.91a17.83,17.83,0,0,0,0,4c.17,2.42-.63,3.54-3.17,2.59-6.63-2.47-11.21,1-15.26,5.49-2.1,2.34-3.73,5.09-5.68,7.57-.68.88-1.19,1.84-.62,2.7a2,2,0,0,0,2.75.38c6.33-5.4,11.3-1.21,16.68,1.94,5.83,3.42,6.37,6.91.48,10.13-13.74,7.51-11.94,5-10.71,22.08.84,11.5-3.66,20-10.39,28-6.38,7.6-11.34,6.93-16-1.69-.68-1.27-.87-2.91-2.63-3.66-3.69,3.36-4,8.19-5.33,12.54-1.51,4.9-2,5.21-6.26,2.1-2.24-1.64-4.14-1.85-6.24,0a34.17,34.17,0,0,0-2.68,2.24c-4.3,4.7-8.55,7.28-14.78,2.38-3.27-2.58-9.18.13-12.38,4.59-3.11,4.31-3.55,11.28-1,14.08,1.36,1.47,3.11,1,4.7,1,11,.05,22,.15,33,0,3.41-.06,4.54.84,4.51,4.42-.16,23.15-.1,46.3,0,69.46a17.57,17.57,0,0,1-1.69,7.2c-5.22,12.06-10.47,24.1-15.6,36.2-1,2.28-2.17,3.35-4.8,3.25-5.49-.21-11-.2-16.49,0-3.13.11-3.64-.72-2.51-3.63,5.35-13.8,10.49-27.68,15.77-41.5a22.41,22.41,0,0,0,1.47-8.27c-.08-13.32-.14-26.65,0-40,0-3.45-.92-4.6-4.46-4.53-10.82.21-21.66-.1-32.48.17-3.82.09-4.53-1.19-4.73-4.8C37.4,280.73,69.6,235.31,119.78,199.82a188.55,188.55,0,0,1,71-30.74c2.5-.52,3.58-1.51,4.07-4.06q8.17-42.65,16.57-85.23a7.25,7.25,0,0,0-1.73-6.91c-2.61-2.79-1.31-5.86,1.27-7.15s4.26-2.66,4.6-5.56c.13-1.05.75-2,2-1.78,1.41.25,1,1.52.89,2.41-.15,1.14-.69,2.23-.86,3.37-.51,3.39.86,5.58,4.36,5.94,9.47,1,17.94-.54,23.63-9.35,2.16-3.35,4.76-6.42,7.12-9.64a11.6,11.6,0,0,1,6.4-4.44c5.5-1.62,6.22-4.3,2.56-8.51-3.86-4.43,0-19,5.5-20.89,5.83-2,12.64,6,11.31,13.38-.52,2.94-1.26,5.83-1.78,8.77a7,7,0,0,0,.32,2.23c1.79.3,2.28-1,3-1.76,5.58-6,13-7.26,20.25-3.43A12,12,0,0,1,306.58,46c1.29,9.27-.54,18.23-2.71,27.15a141.31,141.31,0,0,1-8.78,24.9,21,21,0,0,0-2.17,10.1,96.39,96.39,0,0,1-1.63,22.37,21.54,21.54,0,0,0,1.76,14.09c3.41,6.58,2.95,13.58,2.7,20.52-.13,3.51,1.15,4.94,4.41,5.89,8,2.33,15.83,5.07,23.73,7.64.46.23,1,.42,1.24-.18C325.21,178.34,324.89,178,324.75,177.7ZM261.07,70.21a203.37,203.37,0,0,1-28.54,7.25c-4.6.84-9,.69-13.13-1.33-2.63-1.28-3.56-.92-4.13,2.2q-7.77,42.39-15.91,84.72c-.54,2.85-.79,4.3,3.1,3.34s8.23-1,12.36-1.45c9.42-1,18.9-.85,28.73-1-1.18-5.23-1.9-10.18-3.45-14.87-2.75-8.32-.83-15.69,3.58-22.76,1.5-2.4,3-4.77,4.59-7.13,3.91-6,8.32-11.63,11.62-18,1.85-3.56,3.52-7.26,3.2-11.37C262.58,83.4,261.78,77,261.07,70.21Zm13.2,52.39c-8.24,4.8-15.48,9.32-21.09,16.06a6.47,6.47,0,0,0-.92,7.42,43.4,43.4,0,0,1,3.92,14.85c.21,2.72,1.33,3.68,4,3.83,4.3.25,8.6.78,12.87,1.38,11.42,1.59,12.25,1,9.06-10.06C279,145.3,274.42,134.93,274.27,122.6Zm94.53,80.76c1.12-3.63,0-6.26-1-8.88-3.44-9-6.5-18.1-6.71-28-.11-4.88-1.7-9.53-6-12.62-1-.7-2-2.21-3.32-.61-4.11,5.09-9.91,7.72-15.42,10.79-2,1.13-2.22,2.69-1.21,4.61a49.29,49.29,0,0,1,5.28,15,3.57,3.57,0,0,0,2,2.68C351.32,191.47,359.93,197.08,368.8,203.36Zm66.95,123.81.67-1.32c-11.19-6.79-18-17.08-23.6-28.38A11.39,11.39,0,0,0,411.1,295c-1.58-1.79-3.45-3.61-6-2.78-2.33.78-2.63,3.36-2.66,5.48-.14,9-.06,17.93-.15,26.89,0,2,.88,2.57,2.69,2.56C415.27,327.15,425.51,327.17,435.75,327.17Z" transform="translate(1.82 14.25)" style="fill:#210e00"></path><path d="M311.84,365.66c2.33-7.09,4.34-13.51,6.54-19.85,2.07-5.93,1.92-14.19,6.6-17.2,4.41-2.83,11.92-.87,18.06-.94,5.83-.06,11.66.09,17.48-.05,2.75-.06,3.78.8,3.78,3.7q-.12,56.44,0,112.89c0,2.69-.62,3.85-3.58,3.8-10-.15-20-.12-30,0-2.46,0-3.64-.52-3.54-3.29q.27-8,0-16c-.11-3,1.13-3.57,3.82-3.64,9.69-.24,9.68-.34,9.68-10.07V356.88l-1.16-.13c-2.37,8.05-4.76,16.09-7.11,24.14-6.1,20.9-12.24,41.79-18.21,62.73-.91,3.19-2.13,4.72-5.75,4.43a88,88,0,0,0-14,0c-4.31.33-5.31-.64-4.05-5.05,6.2-21.57,11.92-43.27,18.16-64.82,1.39-4.77.24-5.77-4.28-5.4-4,.33-8,0-12,.11-2.53.09-3.58-.73-3.56-3.38q.12-19.23,0-38.46c0-2.65,1.06-3.47,3.57-3.41,4.83.13,9.67.22,14.49,0,3.28-.17,3.84,1.26,3.8,4.12-.13,9.65-.06,19.31,0,29C310.62,362.08,310.25,363.6,311.84,365.66Z" transform="translate(1.82 14.25)" style="fill:#210e00"></path><path d="M270.51,388.45c0,18.32-.12,36.65.1,55,.05,3.86-1.15,4.65-4.78,4.62q-32.22-.26-64.46,0c-3.7,0-4.78-.91-4.77-4.7q.21-55.47,0-110.93c0-3.69.92-5.09,4.74-4.82a84,84,0,0,0,13,0c4.17-.34,4.93,1.43,4.91,5.17-.13,28.65-.1,57.3-.06,85.94,0,7.29-.77,6.22,6.47,6.29,6.33.06,12.67-.11,19,.06,2.85.08,3.7-.91,3.69-3.71-.1-22.32,0-44.64-.09-67,0-1.29.79-3.46-1.58-3.44-2,0-1.75,2.15-2,3.48-1.14,6.22-2.29,12.44-3.12,18.71-.38,2.84-1.33,4.18-4.37,3.9-4.45-.4-10.45,1.87-13-.89s.43-8.44,1.05-12.82c1.46-10.38,3.17-20.73,4.53-31.12.45-3.41,1.56-4.73,5.27-4.63,10.15.29,20.32.26,30.48,0,3.79-.09,5.11.83,5.06,4.91C270.39,351.14,270.51,369.8,270.51,388.45Z" transform="translate(1.82 14.25)" style="fill:#210e00"></path><path d="M179.87,354.46c0,7.66-.06,15.32,0,23,0,2.48-.67,3.59-3.38,3.49-5.16-.18-10.33-.17-15.48,0-2.71.08-3.39-1-3.38-3.54q.11-23,0-46c0-2.76.8-3.91,3.68-3.81,5,.17,10,.19,15,0,3-.11,3.63,1.21,3.59,3.87C179.8,339.13,179.87,346.8,179.87,354.46Z" transform="translate(1.82 14.25)" style="fill:#210e00"></path><path d="M143.49,354.54c0,7.64-.08,15.28,0,22.92,0,2.53-.65,3.57-3.34,3.47-5.15-.18-10.3-.17-15.45,0-2.68.09-3.37-.94-3.36-3.47q.14-23.18,0-46.35c0-2.53.7-3.57,3.36-3.49q7.72.24,15.45,0c2.67-.08,3.39,1,3.34,3.5C143.4,338.92,143.49,346.73,143.49,354.54Z" transform="translate(1.82 14.25)" style="fill:#210e00"></path><path d="M261.07,70.21c.71,6.77,1.51,13.19,2,19.63.32,4.11-1.35,7.81-3.2,11.37-3.3,6.37-7.71,12-11.62,18-1.55,2.36-3.09,4.73-4.59,7.13-4.41,7.07-6.33,14.44-3.58,22.76,1.55,4.69,2.27,9.64,3.45,14.87-9.83.12-19.31,0-28.73,1-4.13.44-8.36.47-12.36,1.45s-3.64-.49-3.1-3.34q8.07-42.35,15.91-84.72c.57-3.12,1.5-3.48,4.13-2.2,4.17,2,8.53,2.17,13.13,1.33A203.37,203.37,0,0,0,261.07,70.21Z" transform="translate(1.82 14.25)" style="fill:#42a7d8"></path><path d="M274.27,122.6c.15,12.33,4.72,22.7,7.84,33.48,3.19,11,2.36,11.65-9.06,10.06-4.27-.6-8.57-1.13-12.87-1.38-2.67-.15-3.79-1.11-4-3.83a43.4,43.4,0,0,0-3.92-14.85,6.47,6.47,0,0,1,.92-7.42C258.79,131.92,266,127.4,274.27,122.6Z" transform="translate(1.82 14.25)" style="fill:#42a7d8"></path><path d="M368.8,203.36c-8.87-6.28-17.48-11.89-26.41-17a3.57,3.57,0,0,1-2-2.68,49.29,49.29,0,0,0-5.28-15c-1-1.92-.82-3.48,1.21-4.61,5.51-3.07,11.31-5.7,15.42-10.79,1.29-1.6,2.33-.09,3.32.61,4.33,3.09,5.92,7.74,6,12.62.21,9.87,3.27,18.93,6.71,28C368.84,197.1,369.92,199.73,368.8,203.36Z" transform="translate(1.82 14.25)" style="fill:#42a7d8"></path><path d="M435.75,327.17c-10.24,0-20.48,0-30.72,0-1.81,0-2.71-.54-2.69-2.56.09-9,0-17.93.15-26.89,0-2.12.33-4.7,2.66-5.48,2.5-.83,4.37,1,6,2.78a11.39,11.39,0,0,1,1.72,2.43c5.58,11.3,12.41,21.59,23.6,28.38Z" transform="translate(1.82 14.25)" style="fill:#42a7d8"></path><path d="M324.75,177.7c.14.28.46.64.38.82-.27.6-.78.41-1.24.18Z" transform="translate(1.82 14.25)" style="fill:#42a7d8"></path></g></g></g></svg>